<svg  viewBox="0 0 16 16" fill="none" xmlns="http://www.w3.org/2000/svg">
<path d="M11.3335 2.3335H4.66683C2.66683 2.3335 1.3335 3.3335 1.3335 5.66683V10.3335C1.3335 12.6668 2.66683 13.6668 4.66683 13.6668H11.3335C13.3335 13.6668 14.6668 12.6668 14.6668 10.3335V5.66683C14.6668 3.3335 13.3335 2.3335 11.3335 2.3335ZM5.3335 11.8335H3.3335C3.06016 11.8335 2.8335 11.6068 2.8335 11.3335C2.8335 11.0602 3.06016 10.8335 3.3335 10.8335H5.3335C5.60683 10.8335 5.8335 11.0602 5.8335 11.3335C5.8335 11.6068 5.60683 11.8335 5.3335 11.8335ZM8.00016 10.0002C6.8935 10.0002 6.00016 9.10683 6.00016 8.00016C6.00016 6.8935 6.8935 6.00016 8.00016 6.00016C9.10683 6.00016 10.0002 6.8935 10.0002 8.00016C10.0002 9.10683 9.10683 10.0002 8.00016 10.0002ZM12.6668 5.16683H10.6668C10.3935 5.16683 10.1668 4.94016 10.1668 4.66683C10.1668 4.3935 10.3935 4.16683 10.6668 4.16683H12.6668C12.9402 4.16683 13.1668 4.3935 13.1668 4.66683C13.1668 4.94016 12.9402 5.16683 12.6668 5.16683Z" fill="currentColor"/>
</svg>
